<svg version="1.2" xmlns="http://www.w3.org/2000/svg" viewBox="0 0 1521 765" width="1521" height="765">
	<title>logo-he-desktop-svg</title>
	<defs>
		<clipPath clipPathUnits="userSpaceOnUse" id="cp1">
			<path d="m105.74 573.17h1118.93c20.32 0 29.12 18.07 19.64 40.32l-47.16 110.46c-9.41 22.29-33.46 40.32-53.9 40.32h-1118.99c-20.22 0-29.09-18.03-19.68-40.32l47.2-110.46c9.44-22.25 33.6-40.32 53.96-40.32zm272.75-573.21h1119.11c20.25 0 29.02 17.85 19.61 40.11l-47.1 110.7c-9.48 22.3-33.67 40.26-54.07 40.26h-1118.96c-20.29 0-29.13-17.96-19.54-40.26l47.03-110.7c9.48-22.26 33.53-40.15 53.92-40.11zm406.09 242.88l20.61 55.57h77.62c16.53 0 20.18 13.09 4.44 31.66l-48.88 57.57 20 54.03c4.51 12.2 5.91 25.3-22.44 25.3h-64.87l-48.99 57.57c-12.21 14.24-16.32 14.49-22.91-3.11l-20.25-54.46h-78.8c-16.68 0-20.25-13.24-4.62-31.77l49.85-58.72-19.57-52.96c-4.51-12.02-5.83-25.11 22.36-25.11h63.59l49.89-58.68c12.2-14.32 16.32-14.67 22.97 3.11z"/>
		</clipPath>
	</defs>
	<style>
		.s0 { fill: #1b358f } 
	</style>
	<g id="Clip-Path" clip-path="url(#cp1)">
		<g id="Layer">
			<path id="Layer" class="s0" d="m1525.8-0.1h-1525v802.6h1525c0 0 0-802.6 0-802.6z"/>
		</g>
	</g>
</svg>